<mxfile host="65bd71144e">
    <diagram id="l6sd9zgB9RCdRj96Qipt" name="Page-1">
        <mxGraphModel dx="929" dy="667" grid="1" gridSize="10" guides="1" tooltips="1" connect="1" arrows="1" fold="1" page="1" pageScale="1" pageWidth="850" pageHeight="1100" math="0" shadow="0">
            <root>
                <mxCell id="0"/>
                <mxCell id="1" parent="0"/>
                <mxCell id="2" value="&lt;b&gt;Load Document: &lt;br&gt;&lt;div style=&quot;&quot;&gt;&lt;ol&gt;&lt;li style=&quot;text-align: left;&quot;&gt;&lt;span style=&quot;background-color: initial; font-weight: normal;&quot;&gt;PDF,&lt;/span&gt;&lt;/li&gt;&lt;li style=&quot;text-align: left;&quot;&gt;&lt;span style=&quot;background-color: initial;&quot;&gt;Notion,&lt;/span&gt;&lt;/li&gt;&lt;li style=&quot;text-align: left;&quot;&gt;&lt;span style=&quot;background-color: initial;&quot;&gt;youtube,&lt;/span&gt;&lt;/li&gt;&lt;li style=&quot;text-align: left;&quot;&gt;&lt;span style=&quot;background-color: initial;&quot;&gt;url&lt;/span&gt;&lt;/li&gt;&lt;/ol&gt;&lt;/div&gt;&lt;/b&gt;" style="whiteSpace=wrap;html=1;aspect=fixed;" parent="1" vertex="1">
                    <mxGeometry x="10" y="140" width="140" height="140" as="geometry"/>
                </mxCell>
                <mxCell id="4" value="&lt;div style=&quot;text-align: center;&quot;&gt;&lt;b style=&quot;background-color: initial;&quot;&gt;Split Document:&lt;/b&gt;&lt;/div&gt;&lt;div style=&quot;text-align: center;&quot;&gt;&lt;ol&gt;&lt;li&gt;&lt;span style=&quot;background-color: initial;&quot;&gt;Recursive text splitter,&lt;/span&gt;&lt;/li&gt;&lt;li&gt;&lt;span style=&quot;background-color: initial;&quot;&gt;character text split,&lt;/span&gt;&lt;/li&gt;&lt;li&gt;&lt;span style=&quot;background-color: initial;&quot;&gt;context aware splitting,&lt;/span&gt;&lt;/li&gt;&lt;li&gt;&lt;span style=&quot;background-color: initial;&quot;&gt;token splitting&lt;/span&gt;&lt;/li&gt;&lt;/ol&gt;&lt;/div&gt;" style="whiteSpace=wrap;html=1;aspect=fixed;align=left;" parent="1" vertex="1">
                    <mxGeometry x="230" y="130" width="160" height="160" as="geometry"/>
                </mxCell>
                <mxCell id="5" value="&lt;b&gt;storage:&lt;/b&gt;&lt;br&gt;&lt;div style=&quot;&quot;&gt;&lt;span style=&quot;background-color: initial;&quot;&gt;embeddings and&lt;/span&gt;&lt;/div&gt;&lt;div style=&quot;text-align: left;&quot;&gt;&lt;span style=&quot;background-color: initial;&quot;&gt;vector stores&lt;/span&gt;&lt;/div&gt;" style="whiteSpace=wrap;html=1;aspect=fixed;" parent="1" vertex="1">
                    <mxGeometry x="440" y="160" width="80" height="80" as="geometry"/>
                </mxCell>
                <mxCell id="6" value="&lt;b&gt;Retrieval:&lt;br&gt;&lt;div style=&quot;text-align: left;&quot;&gt;&lt;ul&gt;&lt;li&gt;&lt;span style=&quot;background-color: initial; font-weight: normal;&quot;&gt;Similarity search,&amp;nbsp;&lt;/span&gt;&lt;/li&gt;&lt;li&gt;&lt;font color=&quot;#ffffff&quot;&gt;Maximum&lt;/font&gt;&lt;span style=&quot;color: rgb(86, 156, 214);&quot;&gt; &lt;/span&gt;&lt;font color=&quot;#ffffff&quot;&gt;marginal relevance(adds diversity to the response),&lt;/font&gt;&lt;/li&gt;&lt;li&gt;&lt;span style=&quot;color: rgb(255, 255, 255);&quot;&gt;working with metadata(adding filter manually),&amp;nbsp;&lt;/span&gt;&lt;/li&gt;&lt;li&gt;self query(it uses an llm to split query into question and filter),&lt;/li&gt;&lt;li&gt;compression(use LLM to take only the relevant bits from chunk result)&lt;/li&gt;&lt;/ul&gt;&lt;/div&gt;&lt;/b&gt;" style="whiteSpace=wrap;html=1;aspect=fixed;" parent="1" vertex="1">
                    <mxGeometry x="570" y="120" width="260" height="260" as="geometry"/>
                </mxCell>
                <mxCell id="9" value="" style="endArrow=classic;html=1;exitX=1;exitY=0.5;exitDx=0;exitDy=0;" parent="1" source="5" edge="1">
                    <mxGeometry width="50" height="50" relative="1" as="geometry">
                        <mxPoint x="520" y="250" as="sourcePoint"/>
                        <mxPoint x="570" y="200" as="targetPoint"/>
                        <Array as="points"/>
                    </mxGeometry>
                </mxCell>
                <mxCell id="10" value="" style="endArrow=classic;html=1;exitX=1;exitY=0.5;exitDx=0;exitDy=0;entryX=0.021;entryY=0.625;entryDx=0;entryDy=0;entryPerimeter=0;" parent="1" source="4" target="5" edge="1">
                    <mxGeometry width="50" height="50" relative="1" as="geometry">
                        <mxPoint x="400" y="280" as="sourcePoint"/>
                        <mxPoint x="450" y="230" as="targetPoint"/>
                        <Array as="points"/>
                    </mxGeometry>
                </mxCell>
                <mxCell id="11" value="" style="edgeStyle=none;orthogonalLoop=1;jettySize=auto;html=1;" parent="1" edge="1">
                    <mxGeometry width="100" relative="1" as="geometry">
                        <mxPoint x="150" y="210" as="sourcePoint"/>
                        <mxPoint x="230" y="210" as="targetPoint"/>
                        <Array as="points">
                            <mxPoint x="170" y="209.5"/>
                            <mxPoint x="200" y="210"/>
                        </Array>
                    </mxGeometry>
                </mxCell>
                <mxCell id="19" value="&lt;div style=&quot;border-color: rgb(0, 0, 0); color: rgb(240, 240, 240); font-family: Helvetica; font-size: 12px; font-style: normal; font-variant-ligatures: normal; font-variant-caps: normal; font-weight: 400; letter-spacing: normal; orphans: 2; text-indent: 0px; text-transform: none; widows: 2; word-spacing: 0px; -webkit-text-stroke-width: 0px; background-color: rgb(42, 37, 47); text-decoration-thickness: initial; text-decoration-style: initial; text-decoration-color: initial; text-align: center;&quot;&gt;&lt;b style=&quot;border-color: rgb(0, 0, 0); background-color: initial;&quot;&gt;Question and Answering:&lt;/b&gt;&lt;/div&gt;&lt;div style=&quot;border-color: rgb(0, 0, 0); color: rgb(240, 240, 240); font-family: Helvetica; font-size: 12px; font-style: normal; font-variant-ligatures: normal; font-variant-caps: normal; font-weight: 400; letter-spacing: normal; orphans: 2; text-indent: 0px; text-transform: none; widows: 2; word-spacing: 0px; -webkit-text-stroke-width: 0px; background-color: rgb(42, 37, 47); text-decoration-thickness: initial; text-decoration-style: initial; text-decoration-color: initial; text-align: center;&quot;&gt;&lt;ol style=&quot;border-color: rgb(0, 0, 0);&quot;&gt;&lt;li style=&quot;padding: 3px 0px; border-color: rgb(0, 0, 0);&quot;&gt;&lt;span style=&quot;border-color: rgb(0, 0, 0); background-color: initial;&quot;&gt;Retrieval QA chain types,&lt;/span&gt;&lt;/li&gt;&lt;li style=&quot;padding: 3px 0px; border-color: rgb(0, 0, 0);&quot;&gt;&lt;span style=&quot;border-color: rgb(0, 0, 0); background-color: initial;&quot;&gt;Using Prompt template,&lt;/span&gt;&lt;/li&gt;&lt;li style=&quot;padding: 3px 0px; border-color: rgb(0, 0, 0);&quot;&gt;Retrieval QA Chain types, Map reduce, refine and Map rerank&lt;/li&gt;&lt;li style=&quot;padding: 3px 0px; border-color: rgb(0, 0, 0);&quot;&gt;&lt;span style=&quot;border-color: rgb(0, 0, 0); background-color: initial;&quot;&gt;token splitting&lt;/span&gt;&lt;/li&gt;&lt;/ol&gt;&lt;/div&gt;" style="text;whiteSpace=wrap;html=1;fontColor=#FFFFFF;" parent="1" vertex="1">
                    <mxGeometry x="590" y="440" width="200" height="140" as="geometry"/>
                </mxCell>
                <mxCell id="20" style="edgeStyle=none;html=1;fontColor=#FFFFFF;" parent="1" edge="1">
                    <mxGeometry relative="1" as="geometry">
                        <mxPoint x="680" y="380" as="sourcePoint"/>
                        <mxPoint x="680" y="450" as="targetPoint"/>
                        <Array as="points">
                            <mxPoint x="680" y="380"/>
                        </Array>
                    </mxGeometry>
                </mxCell>
                <mxCell id="27" value="Embedding:&lt;br&gt;Deploy sentence transformer(all-mpnet-base-v2)&lt;br&gt;&amp;nbsp;to AWS Sagemaker" style="ellipse;shape=cloud;whiteSpace=wrap;html=1;" vertex="1" parent="1">
                    <mxGeometry x="90" y="330" width="350" height="140" as="geometry"/>
                </mxCell>
                <mxCell id="29" value="Chat LLM:&lt;br&gt;Deploy falcon 7b to AWS Sagemaker" style="ellipse;shape=cloud;whiteSpace=wrap;html=1;" vertex="1" parent="1">
                    <mxGeometry x="90" y="520" width="290" height="100" as="geometry"/>
                </mxCell>
            </root>
        </mxGraphModel>
    </diagram>
</mxfile>